<?xml version="1.0" encoding="UTF-8" standalone="no"?>
<!-- Created with Inkscape (http://www.inkscape.org/) -->

<svg
   xmlns:dc="http://purl.org/dc/elements/1.1/"
   xmlns:cc="http://creativecommons.org/ns#"
   xmlns:rdf="http://www.w3.org/1999/02/22-rdf-syntax-ns#"
   xmlns:svg="http://www.w3.org/2000/svg"
   xmlns="http://www.w3.org/2000/svg"
   xmlns:sodipodi="http://sodipodi.sourceforge.net/DTD/sodipodi-0.dtd"
   xmlns:inkscape="http://www.inkscape.org/namespaces/inkscape"
   version="1.1"
   id="svg2"
   width="100"
   height="100"
   viewBox="0 0 100 100"
   sodipodi:docname="disco-party.svg"
   inkscape:version="0.92.3 (2405546, 2018-03-11)">
  <metadata
     id="metadata8">
    <rdf:RDF>
      <cc:Work
         rdf:about="">
        <dc:format>image/svg+xml</dc:format>
        <dc:type
           rdf:resource="http://purl.org/dc/dcmitype/StillImage" />
        <dc:title></dc:title>
      </cc:Work>
    </rdf:RDF>
  </metadata>
  <defs
     id="defs6" />
  <sodipodi:namedview
     pagecolor="#ffffff"
     bordercolor="#666666"
     borderopacity="1"
     objecttolerance="10"
     gridtolerance="10"
     guidetolerance="10"
     inkscape:pageopacity="0"
     inkscape:pageshadow="2"
     inkscape:window-width="1280"
     inkscape:window-height="665"
     id="namedview4"
     showgrid="false"
     inkscape:zoom="2.7668759"
     inkscape:cx="29.436497"
     inkscape:cy="46.186019"
     inkscape:window-x="0"
     inkscape:window-y="27"
     inkscape:window-maximized="1"
     inkscape:current-layer="svg2" />
  <path
     style="fill:#606060;stroke-width:0.10511619;fill-opacity:1"
     d="M 14.570968,95.036862 C 14.277043,93.920696 13.960855,93.192686 13.416587,92.378942 12.390106,90.844225 10.78114,89.90299 8.4414563,89.46851 c -0.115635,-0.02147 0.115453,-0.07609 0.51352,-0.121376 2.2205327,-0.252613 3.7106217,-1.235782 4.5664647,-3.012981 0.48954,-1.016574 0.706259,-1.81596 0.895726,-3.30399 l 0.133845,-1.051162 0.291486,0.946046 c 1.454565,4.720817 1.964803,5.271274 5.747072,6.199988 0.823551,0.202216 1.515046,0.385353 1.536659,0.40697 0.02164,0.02161 -0.257771,0.09577 -0.620874,0.164777 -2.404015,0.456901 -4.205476,1.207003 -5.177198,2.15571 -0.768334,0.750124 -1.295725,1.835478 -1.385672,2.851624 -0.08993,1.016159 -0.172163,1.08979 -0.371517,0.332746 z M 42.39398,94.901667 C 36.211914,94.14146 30.634505,91.809922 25.785627,87.958836 24.313361,86.789537 21.810975,84.294969 20.696833,82.885953 17.22307,78.49279 15.180675,73.808075 14.366788,68.366454 14.154996,66.950419 14.1231,66.33814 14.123121,63.688783 c 2e-5,-2.348554 0.04268,-3.350012 0.185778,-4.362312 0.828611,-5.861323 2.744295,-10.593378 6.106548,-15.084183 1.128825,-1.507722 3.984935,-4.412838 5.422735,-5.515791 4.150127,-3.183603 8.636104,-5.292188 14.020724,-6.590279 0.873971,-0.21069 1.626616,-0.415629 1.672555,-0.455421 0.04593,-0.03979 0.129181,-0.517243 0.184986,-1.061003 0.169267,-1.64961 0.138458,-1.581081 1.188503,-2.644063 1.038197,-1.050994 1.469869,-1.770716 1.8127,-3.022265 0.174428,-0.636804 0.184955,-1.356786 0.154776,-10.590457 l -0.03241,-9.9072011 h 0.697398 0.697389 l -0.0051,10.1174331 c -0.0061,10.942888 -0.02398,10.559298 0.548322,11.68283 0.258087,0.506682 1.044345,1.357691 1.621272,1.754799 0.546605,0.376235 0.705598,0.767418 0.982524,2.417373 0.118836,0.708055 0.262089,1.342837 0.318352,1.410625 0.05629,0.06779 0.445816,0.184404 0.865679,0.259147 3.085846,0.549332 6.905458,1.885611 9.961043,3.48484 7.281567,3.811009 13.117733,11.063144 15.450548,19.19915 0.735808,2.566211 1.047718,4.670497 1.125614,7.593897 0.182405,6.845053 -1.452248,12.821526 -4.959675,18.133134 -5.040021,7.632523 -13.190529,12.875374 -22.163378,14.256689 -1.861433,0.286555 -5.78854,0.356934 -7.585652,0.135942 z m 4.45839,-3.413916 c 1.395539,-0.229738 2.283664,-0.896085 2.586216,-1.940383 0.08373,-0.28907 0.200645,-1.171889 0.259783,-1.961823 0.103208,-1.378719 0.40262,-2.731826 0.636451,-2.876345 0.05721,-0.03534 0.07682,-0.108296 0.04349,-0.162115 -0.08088,-0.130823 -9.896102,-0.130993 -9.976956,-2.11e-4 -0.082,0.132623 0.424518,3.481158 0.674211,4.457443 0.376089,1.470511 0.937275,2.2629 1.804763,2.548336 0.516701,0.170011 2.768459,0.133196 3.972031,-0.06494 z m 5.917741,-0.889272 c 4.203809,-0.776526 5.719871,-1.91536 7.206577,-5.413434 0.497556,-1.170696 0.983407,-2.544718 0.921647,-2.606479 -0.0755,-0.07553 -1.903104,0.145332 -3.834924,0.463448 -3.967712,0.653369 -5.369876,1.564221 -5.84267,3.795417 -0.154086,0.727168 -0.220225,3.818186 -0.08464,3.95381 0.09541,0.09542 0.03587,0.102437 1.633962,-0.192762 z M 29.412134,86.931074 c 0,-0.02252 -0.07306,-0.436414 -0.162407,-0.919766 -0.683285,-3.697411 -2.33505,-5.383912 -5.656678,-5.775653 -0.563168,-0.06642 -1.057057,-0.08747 -1.097539,-0.04678 -0.07214,0.0725 6.682895,6.768774 6.837783,6.778299 0.04339,0.0026 0.07885,-0.01358 0.07885,-0.03609 z m 34.224674,-1.746029 c 0.624816,-0.66486 1.875039,-1.989324 2.778274,-2.943253 0.903225,-0.95393 1.851729,-1.966495 2.107763,-2.250145 l 0.465538,-0.515726 -0.606963,0.0702 c -0.871624,0.10081 -2.444974,0.630191 -3.17808,1.06932 -1.339956,0.802633 -2.186024,1.935833 -2.563038,3.432883 -0.230397,0.914821 -0.382684,2.436011 -0.238505,2.382376 0.05446,-0.02025 0.610184,-0.580795 1.235011,-1.245655 z M 55.03895,81.761962 c 4.474404,-0.672868 5.788876,-1.077332 6.805664,-2.094118 1.06861,-1.068613 1.54118,-2.674343 2.042171,-6.939068 0.115453,-0.982837 0.237825,-1.99142 0.271936,-2.241296 l 0.06198,-0.45432 -0.454321,0.06021 c -0.249876,0.03312 -2.677525,0.277178 -5.394781,0.542362 -2.717256,0.265183 -4.962683,0.504177 -4.989854,0.531097 -0.04369,0.04333 -1.144718,10.322598 -1.155256,10.785893 -0.002,0.101176 0.06889,0.183954 0.158232,0.183954 0.08932,0 1.283714,-0.168621 2.654185,-0.374714 z m -17.01018,-0.01947 c -0.01158,-0.733898 -1.041866,-10.572165 -1.114234,-10.639389 -0.08109,-0.07531 -1.898126,-0.265485 -7.60752,-0.796222 -0.896112,-0.0833 -1.85368,-0.179953 -2.127933,-0.214783 l -0.498624,-0.06333 0.04999,0.29884 c 0.02754,0.164363 0.217593,1.325291 0.422384,2.579841 0.20479,1.254549 0.493736,2.768222 0.6421,3.363718 0.367757,1.476149 1.021035,2.836512 1.677321,3.49281 0.93311,0.933133 2.583321,1.523831 5.143097,1.840982 0.520328,0.06446 1.253505,0.157336 1.629299,0.206373 0.375794,0.04904 0.931595,0.095 1.235112,0.102133 0.461444,0.01085 0.551392,-0.01716 0.548973,-0.170978 z m 28.384259,-3.569231 c 4.404698,-1.644047 5.894198,-3.501891 6.303402,-7.862155 0.173331,-1.846962 0.18963,-1.765919 -0.338055,-1.681021 -1.1499,0.185004 -3.033403,0.598644 -3.651706,0.801956 -2.900962,0.953904 -3.625471,2.382771 -3.851498,7.59583 l -0.07245,1.67119 0.305854,-0.07653 c 0.16823,-0.0421 0.755237,-0.244263 1.304464,-0.449263 z m -7.545088,-9.22641 c 2.675543,-0.258923 5.065667,-0.498331 5.311377,-0.532022 l 0.44674,-0.06125 V 63.003852 57.65413 l -0.341632,-0.0546 c -0.404611,-0.06467 -10.454281,-1.008662 -10.721847,-1.007136 -0.173169,9.46e-4 -0.18395,0.376863 -0.18395,6.413136 v 6.412088 h 0.312337 c 0.171797,0 2.501431,-0.211845 5.176975,-0.470767 z m -7.48652,-5.942141 v -6.307791 l -6.333256,0.0271 -6.333245,0.0271 -0.02733,6.149297 c -0.01504,3.382114 -0.0051,6.208426 0.02296,6.280693 0.03943,0.103099 1.409186,0.131395 6.360529,0.131395 h 6.310271 z m 20.287424,4.356349 c 0.415515,-0.125199 0.715303,-0.31137 1.065775,-0.661842 0.700406,-0.700401 0.846861,-1.240199 0.902341,-3.32578 0.04105,-1.545026 -0.07682,-3.872574 -0.202565,-3.998314 -0.05507,-0.05503 -6.554791,-1.310053 -6.784782,-1.310053 -0.19217,0 -0.192241,9.235039 -7.1e-5,9.303922 0.07225,0.0259 0.628068,0.09203 1.235113,0.14694 1.43782,0.130064 3.058695,0.06373 3.784189,-0.154873 z m -47.459962,-0.02383 0.420463,-0.07803 0.02744,-4.491952 0.02744,-4.491954 h -0.3434 c -0.523539,0 -2.965608,0.29575 -3.952582,0.478682 -2.273584,0.421401 -3.118586,1.156244 -3.244534,2.821549 -0.07154,0.946042 0.131303,3.105101 0.356183,3.791085 0.332222,1.013441 1.422425,1.782307 2.908755,2.051405 0.574396,0.103992 3.093111,0.05045 3.800305,-0.08079 z M 72.825116,56.815283 c 0,-0.64709 -0.302714,-2.073282 -0.630994,-2.972778 -0.749719,-2.054297 -2.256747,-3.684109 -4.402869,-4.761589 -0.653125,-0.327909 -2.725171,-1.026385 -2.837982,-0.956667 -0.07469,0.04616 0.357931,3.773087 0.617064,5.315703 0.453711,2.700996 1.014085,3.167246 4.223613,3.514155 0.828845,0.08959 1.64889,0.179907 1.822333,0.200709 0.173443,0.0208 0.516385,0.0449 0.762095,0.05357 l 0.44674,0.01575 z M 29.233204,55.702978 c 0.763274,-0.08506 2.806838,-0.302531 4.541255,-0.483272 1.734417,-0.180744 3.185101,-0.359489 3.223734,-0.397212 0.08647,-0.08441 1.157379,-10.123427 1.087388,-10.193416 -0.02764,-0.02762 -0.667981,0.03142 -1.423025,0.1312 -5.692841,0.752299 -8.083067,2.11376 -9.026256,5.141304 -0.252579,0.810759 -0.267384,0.987897 -0.269396,3.223024 -0.001,1.300812 0.0313,2.447893 0.07225,2.549068 0.08983,0.222303 0.06574,0.221909 1.794094,0.02931 z m 34.778484,0.103284 c 0.166289,-0.166294 -0.543496,-5.033913 -0.927034,-6.357413 -0.842816,-2.908389 -2.424164,-3.746046 -8.234399,-4.361851 -0.838304,-0.08885 -1.772521,-0.188578 -2.076049,-0.221621 -0.524677,-0.05712 -0.551828,-0.04805 -0.551167,0.183997 4.26e-4,0.134242 0.161787,1.615841 0.358662,3.292445 0.196885,1.676603 0.440623,3.805206 0.541657,4.730229 0.101003,0.925022 0.222084,1.725428 0.268999,1.778682 0.04695,0.05326 2.369009,0.29631 5.160198,0.540131 6.014253,0.525366 5.396194,0.478336 5.459133,0.415401 z m -12.42004,-1.233998 c 0,-1.026083 -0.615174,-6.984719 -0.847694,-8.21075 -0.165761,-0.87407 -0.82667,-1.644433 -1.737181,-2.024867 -0.649407,-0.271337 -3.785968,-0.418431 -5.745426,-0.269438 -1.740992,0.132381 -2.003508,0.205084 -2.682393,0.742861 -0.600399,0.475611 -0.857814,0.956715 -1.02263,1.911316 -0.169815,0.983533 -0.404693,3.322275 -0.574468,5.719965 -0.06137,0.867209 -0.135317,1.754126 -0.164257,1.970928 l -0.05264,0.394186 h 6.413337 6.413326 z M 67.715572,47.268 c 0.324257,-0.272624 0.588897,-0.520961 0.588084,-0.551859 -0.002,-0.06778 -5.7841,-6.561855 -5.877025,-6.600425 -0.03587,-0.01488 -0.366294,0.276815 -0.734365,0.648193 l -0.669232,0.675235 0.212737,0.270457 c 0.385366,0.489915 5.722919,6.054079 5.807511,6.054079 0.04552,0 0.348044,-0.223056 0.67229,-0.49568 z m -43.59749,-0.201038 c 2.927299,-0.978305 4.539121,-2.567818 5.177807,-5.106125 0.222248,-0.883288 0.371181,-2.185987 0.249917,-2.185987 -0.05914,0 -5.635441,5.19975 -7.223556,6.735757 -0.127575,0.123391 0.546686,0.832608 0.791573,0.832608 0.09775,0 0.549623,-0.124314 1.004259,-0.276253 z m 8.132187,-2.781593 c 1.9495,-0.266185 3.773235,-0.708135 4.687343,-1.135896 1.200615,-0.561837 1.995338,-1.4847 2.317674,-2.691368 0.209312,-0.783594 0.151454,-4.196725 -0.07458,-4.400043 -0.0249,-0.02242 -0.374189,-1.06e-4 -0.776148,0.04954 -4.312525,0.532817 -7.104344,3.083595 -8.347636,7.626918 -0.113431,0.41449 -0.182426,0.777423 -0.153334,0.806519 0.05802,0.058 0.01565,0.06262 2.346685,-0.255661 z M 60.62079,43.883312 c 0.124638,-0.07892 0.119527,-0.201638 -0.03384,-0.812301 -0.754576,-3.00398 -2.726157,-5.251517 -5.578995,-6.359893 -0.862793,-0.335206 -2.990655,-0.822493 -3.600229,-0.824464 l -0.341632,-0.0011 v 0.817407 c 0,1.712674 0.321939,3.411566 0.851026,4.490961 0.71068,1.449875 1.923468,2.251153 3.96692,2.620911 0.907239,0.164162 4.503556,0.216157 4.736778,0.06849 z M 49.909266,42.166243 c -3.15e-4,-0.130082 -0.07032,-1.026998 -0.155497,-1.993149 -0.407671,-4.62114 -0.964732,-5.209292 -4.831746,-5.101396 -2.022336,0.05643 -2.669142,0.200668 -3.271533,0.729576 -0.848049,0.744601 -1.14301,1.958123 -1.355462,5.576597 l -0.06016,1.024883 h 4.837476 4.837466 l -5.28e-4,-0.236511 z M 46.283278,31.585216 c 0.23126,-0.107903 0.906944,-0.479825 1.501521,-0.826497 l 1.081057,-0.630313 -1.354995,-0.905214 C 46.765613,28.725326 46.012622,28.289333 45.837554,28.254318 45.3238,28.151567 44.823906,28.471879 44.063406,29.39112 l -0.694126,0.839005 0.458395,0.468848 c 0.637518,0.652054 1.324582,1.087497 1.711534,1.084737 0.177985,-0.0012 0.512819,-0.09059 0.744069,-0.198494 z m 37.604637,52.51593 c -0.792223,-2.874938 -2.527433,-4.591089 -5.308044,-5.249751 l -0.971966,-0.230235 0.735818,-0.08194 c 3.271848,-0.36436 4.921052,-2.279699 5.407452,-6.280049 0.06646,-0.546834 0.133885,-1.007239 0.149767,-1.023123 0.01585,-0.01588 0.209302,0.573643 0.429812,1.310064 0.735605,2.456627 1.20156,3.451671 1.976448,4.220707 0.63385,0.629062 1.521264,1.013164 3.528166,1.527103 l 1.752992,0.448915 -0.6307,0.128912 c -2.253302,0.460561 -3.608999,0.952001 -4.65754,1.688365 -1.24315,0.873029 -1.803697,1.84848 -2.054904,3.575861 L 84.12511,84.961898 Z M 73.099755,40.990437 c -0.607329,-2.576152 -2.334917,-4.435191 -4.831979,-5.199632 -0.39634,-0.121331 -0.833884,-0.220604 -0.972332,-0.220604 -0.138437,0 -0.251715,-0.0473 -0.251715,-0.105115 0,-0.05782 0.157988,-0.105116 0.351093,-0.105116 0.572851,0 1.928944,-0.390805 2.603297,-0.750231 0.783149,-0.417415 1.65714,-1.347242 2.083782,-2.216904 0.403788,-0.82308 0.806246,-2.392309 0.905562,-3.530839 0.04166,-0.477081 0.09003,-0.853052 0.107598,-0.835493 0.01758,0.01756 0.250495,0.740554 0.517635,1.606652 1.211793,3.928718 1.946869,4.650781 5.639861,5.540039 0.746945,0.179862 1.321047,0.358648 1.275778,0.397306 -0.04522,0.03865 -0.484357,0.153691 -0.975777,0.255632 -3.735405,0.77488 -5.652968,2.256697 -6.007902,4.642675 -0.210744,1.416711 -0.228872,1.437968 -0.444901,0.52163 z M 22.071866,22.64091 c -0.477366,-1.677819 -0.892038,-2.576308 -1.587323,-3.439364 -0.915042,-1.135819 -2.117497,-1.855701 -3.825566,-2.290269 -0.530479,-0.134965 -0.832431,-0.249127 -0.671009,-0.25369 0.625731,-0.01769 1.944999,-0.355445 2.5972,-0.664918 1.826346,-0.866621 2.998022,-2.987562 3.221286,-5.831081 0.0693,-0.8820786 0.17331,-1.0272405 0.305366,-0.42599 0.308659,1.40529 1.339611,4.013353 1.872092,4.735917 0.593124,0.804852 1.863567,1.400886 4.204389,1.972491 0.690204,0.168542 1.27275,0.324276 1.294545,0.346072 0.02175,0.0218 -0.375438,0.120728 -0.88275,0.219845 -1.323424,0.258567 -3.01873,0.844683 -3.825667,1.322647 -0.83672,0.495609 -1.721015,1.430879 -2.045667,2.16359 -0.241219,0.5444 -0.441579,1.436372 -0.493574,2.197308 l -0.02876,0.420464 z"
     id="path817"
     inkscape:connector-curvature="0" />
</svg>
