<?xml version="1.0" encoding="UTF-8"?>
<svg width="100" height="100" version="1.1" viewBox="0 0 100 100" xmlns="http://www.w3.org/2000/svg">
 <path d="m14.57 95.04c-0.2939-1.116-0.6101-1.844-1.154-2.658-1.026-1.535-2.635-2.476-4.975-2.91-0.1156-0.02147 0.1155-0.07609 0.5135-0.1214 2.221-0.2526 3.711-1.236 4.566-3.013 0.4895-1.017 0.7063-1.816 0.8957-3.304l0.1338-1.051 0.2915 0.946c1.455 4.721 1.965 5.271 5.747 6.2 0.8236 0.2022 1.515 0.3854 1.537 0.407 0.02164 0.02161-0.2578 0.09577-0.6209 0.1648-2.404 0.4569-4.205 1.207-5.177 2.156-0.7683 0.7501-1.296 1.835-1.386 2.852-0.08993 1.016-0.1722 1.09-0.3715 0.3327zm27.82-0.1352c-6.182-0.7602-11.76-3.092-16.61-6.943-1.472-1.169-3.975-3.664-5.089-5.073-3.474-4.393-5.516-9.078-6.33-14.52-0.2118-1.416-0.2437-2.028-0.2437-4.678 2e-5 -2.349 0.04268-3.35 0.1858-4.362 0.8286-5.861 2.744-10.59 6.107-15.08 1.129-1.508 3.985-4.413 5.423-5.516 4.15-3.184 8.636-5.292 14.02-6.59 0.874-0.2107 1.627-0.4156 1.673-0.4554 0.04593-0.03979 0.1292-0.5172 0.185-1.061 0.1693-1.65 0.1385-1.581 1.189-2.644 1.038-1.051 1.47-1.771 1.813-3.022 0.1744-0.6368 0.185-1.357 0.1548-10.59l-0.03241-9.907h1.395l-0.0051 10.12c-0.0061 10.94-0.02398 10.56 0.5483 11.68 0.2581 0.5067 1.044 1.358 1.621 1.755 0.5466 0.3762 0.7056 0.7674 0.9825 2.417 0.1188 0.7081 0.2621 1.343 0.3184 1.411 0.05629 0.06779 0.4458 0.1844 0.8657 0.2591 3.086 0.5493 6.905 1.886 9.961 3.485 7.282 3.811 13.12 11.06 15.45 19.2 0.7358 2.566 1.048 4.67 1.126 7.594 0.1824 6.845-1.452 12.82-4.96 18.13-5.04 7.633-13.19 12.88-22.16 14.26-1.861 0.2866-5.789 0.3569-7.586 0.1359zm4.458-3.414c1.396-0.2297 2.284-0.8961 2.586-1.94 0.08373-0.2891 0.2006-1.172 0.2598-1.962 0.1032-1.379 0.4026-2.732 0.6365-2.876 0.05721-0.03534 0.07682-0.1083 0.04349-0.1621-0.08088-0.1308-9.896-0.131-9.977-2.11e-4 -0.082 0.1326 0.4245 3.481 0.6742 4.457 0.3761 1.471 0.9373 2.263 1.805 2.548 0.5167 0.17 2.768 0.1332 3.972-0.06494zm5.918-0.8893c4.204-0.7765 5.72-1.915 7.207-5.413 0.4976-1.171 0.9834-2.545 0.9216-2.606-0.0755-0.07553-1.903 0.1453-3.835 0.4634-3.968 0.6534-5.37 1.564-5.843 3.795-0.1541 0.7272-0.2202 3.818-0.08464 3.954 0.09541 0.09542 0.03587 0.1024 1.634-0.1928zm-23.36-3.667c0-0.02252-0.07306-0.4364-0.1624-0.9198-0.6833-3.697-2.335-5.384-5.657-5.776-0.5632-0.06642-1.057-0.08747-1.098-0.04678-0.07214 0.0725 6.683 6.769 6.838 6.778 0.04339 0.0026 0.07885-0.01358 0.07885-0.03609zm34.22-1.746c0.6248-0.6649 1.875-1.989 2.778-2.943 0.9032-0.9539 1.852-1.966 2.108-2.25l0.4655-0.5157-0.607 0.0702c-0.8716 0.1008-2.445 0.6302-3.178 1.069-1.34 0.8026-2.186 1.936-2.563 3.433-0.2304 0.9148-0.3827 2.436-0.2385 2.382 0.05446-0.02025 0.6102-0.5808 1.235-1.246zm-8.598-3.423c4.474-0.6729 5.789-1.077 6.806-2.094 1.069-1.069 1.541-2.674 2.042-6.939 0.1155-0.9828 0.2378-1.991 0.2719-2.241l0.06198-0.4543-0.4543 0.06021c-0.2499 0.03312-2.678 0.2772-5.395 0.5424-2.717 0.2652-4.963 0.5042-4.99 0.5311-0.04369 0.04333-1.145 10.32-1.155 10.79-2e-3 0.1012 0.06889 0.184 0.1582 0.184 0.08932 0 1.284-0.1686 2.654-0.3747zm-17.01-0.01947c-0.01158-0.7339-1.042-10.57-1.114-10.64-0.08109-0.07531-1.898-0.2655-7.608-0.7962-0.8961-0.0833-1.854-0.18-2.128-0.2148l-0.4986-0.06333 0.04999 0.2988c0.02754 0.1644 0.2176 1.325 0.4224 2.58 0.2048 1.255 0.4937 2.768 0.6421 3.364 0.3678 1.476 1.021 2.837 1.677 3.493 0.9331 0.9331 2.583 1.524 5.143 1.841 0.5203 0.06446 1.254 0.1573 1.629 0.2064 0.3758 0.04904 0.9316 0.095 1.235 0.1021 0.4614 0.01085 0.5514-0.01716 0.549-0.171zm28.38-3.569c4.405-1.644 5.894-3.502 6.303-7.862 0.1733-1.847 0.1896-1.766-0.3381-1.681-1.15 0.185-3.033 0.5986-3.652 0.802-2.901 0.9539-3.625 2.383-3.851 7.596l-0.07245 1.671 0.3059-0.07653c0.1682-0.0421 0.7552-0.2443 1.304-0.4493zm-7.545-9.226c2.676-0.2589 5.066-0.4983 5.311-0.532l0.4467-0.06125v-10.7l-0.3416-0.0546c-0.4046-0.06467-10.45-1.009-10.72-1.007-0.1732 9.46e-4 -0.184 0.3769-0.184 6.413v6.412h0.3123c0.1718 0 2.501-0.2118 5.177-0.4708zm-7.487-5.942v-6.308l-12.67 0.0542-0.02733 6.149c-0.01504 3.382-0.0051 6.208 0.02296 6.281 0.03943 0.1031 1.409 0.1314 6.361 0.1314h6.31zm20.29 4.356c0.4155-0.1252 0.7153-0.3114 1.066-0.6618 0.7004-0.7004 0.8469-1.24 0.9023-3.326 0.04105-1.545-0.07682-3.873-0.2026-3.998-0.05507-0.05503-6.555-1.31-6.785-1.31-0.1922 0-0.1922 9.235-7.1e-5 9.304 0.07225 0.0259 0.6281 0.09203 1.235 0.1469 1.438 0.1301 3.059 0.06373 3.784-0.1549zm-47.46-0.02383 0.4205-0.07803 0.05488-8.984h-0.3434c-0.5235 0-2.966 0.2958-3.953 0.4787-2.274 0.4214-3.119 1.156-3.245 2.822-0.07154 0.946 0.1313 3.105 0.3562 3.791 0.3322 1.013 1.422 1.782 2.909 2.051 0.5744 0.104 3.093 0.05045 3.8-0.08079zm48.62-10.52c0-0.6471-0.3027-2.073-0.631-2.973-0.7497-2.054-2.257-3.684-4.403-4.762-0.6531-0.3279-2.725-1.026-2.838-0.9567-0.07469 0.04616 0.3579 3.773 0.6171 5.316 0.4537 2.701 1.014 3.167 4.224 3.514 0.8288 0.08959 1.649 0.1799 1.822 0.2007 0.1734 0.0208 0.5164 0.0449 0.7621 0.05357l0.4467 0.01575zm-43.59-1.112c0.7633-0.08506 2.807-0.3025 4.541-0.4833 1.734-0.1807 3.185-0.3595 3.224-0.3972 0.08647-0.08441 1.157-10.12 1.087-10.19-0.02764-0.02762-0.668 0.03142-1.423 0.1312-5.693 0.7523-8.083 2.114-9.026 5.141-0.2526 0.8108-0.2674 0.9879-0.2694 3.223-1e-3 1.301 0.0313 2.448 0.07225 2.549 0.08983 0.2223 0.06574 0.2219 1.794 0.02931zm34.78 0.1033c0.1663-0.1663-0.5435-5.034-0.927-6.357-0.8428-2.908-2.424-3.746-8.234-4.362-0.8383-0.08885-1.773-0.1886-2.076-0.2216-0.5247-0.05712-0.5518-0.04805-0.5512 0.184 4.26e-4 0.1342 0.1618 1.616 0.3587 3.292 0.1969 1.677 0.4406 3.805 0.5417 4.73 0.101 0.925 0.2221 1.725 0.269 1.779 0.04695 0.05326 2.369 0.2963 5.16 0.5401 6.014 0.5254 5.396 0.4783 5.459 0.4154zm-12.42-1.234c0-1.026-0.6152-6.985-0.8477-8.211-0.1658-0.8741-0.8267-1.644-1.737-2.025-0.6494-0.2713-3.786-0.4184-5.745-0.2694-1.741 0.1324-2.004 0.2051-2.682 0.7429-0.6004 0.4756-0.8578 0.9567-1.023 1.911-0.1698 0.9835-0.4047 3.322-0.5745 5.72-0.06137 0.8672-0.1353 1.754-0.1643 1.971l-0.05264 0.3942h12.83zm16.12-7.304c0.3243-0.2726 0.5889-0.521 0.5881-0.5519-2e-3 -0.06778-5.784-6.562-5.877-6.6-0.03587-0.01488-0.3663 0.2768-0.7344 0.6482l-0.6692 0.6752 0.2127 0.2705c0.3854 0.4899 5.723 6.054 5.808 6.054 0.04552 0 0.348-0.2231 0.6723-0.4957zm-43.6-0.201c2.927-0.9783 4.539-2.568 5.178-5.106 0.2222-0.8833 0.3712-2.186 0.2499-2.186-0.05914 0-5.635 5.2-7.224 6.736-0.1276 0.1234 0.5467 0.8326 0.7916 0.8326 0.09775 0 0.5496-0.1243 1.004-0.2763zm8.132-2.782c1.95-0.2662 3.773-0.7081 4.687-1.136 1.201-0.5618 1.995-1.485 2.318-2.691 0.2093-0.7836 0.1515-4.197-0.07458-4.4-0.0249-0.02242-0.3742-1.06e-4 -0.7761 0.04954-4.313 0.5328-7.104 3.084-8.348 7.627-0.1134 0.4145-0.1824 0.7774-0.1533 0.8065 0.05802 0.058 0.01565 0.06262 2.347-0.2557zm28.37-0.4021c0.1246-0.07892 0.1195-0.2016-0.03384-0.8123-0.7546-3.004-2.726-5.252-5.579-6.36-0.8628-0.3352-2.991-0.8225-3.6-0.8245l-0.3416-0.0011v0.8174c0 1.713 0.3219 3.412 0.851 4.491 0.7107 1.45 1.923 2.251 3.967 2.621 0.9072 0.1642 4.504 0.2162 4.737 0.06849zm-10.71-1.717c-3.15e-4 -0.1301-0.07032-1.027-0.1555-1.993-0.4077-4.621-0.9647-5.209-4.832-5.101-2.022 0.05643-2.669 0.2007-3.272 0.7296-0.848 0.7446-1.143 1.958-1.355 5.577l-0.06016 1.025h9.675l-5.28e-4 -0.2365zm-3.626-10.58c0.2313-0.1079 0.9069-0.4798 1.502-0.8265l1.081-0.6303-1.355-0.9052c-0.7452-0.4979-1.498-0.9339-1.673-0.9689-0.5138-0.1028-1.014 0.2176-1.774 1.137l-0.6941 0.839 0.4584 0.4688c0.6375 0.6521 1.325 1.087 1.712 1.085 0.178-0.0012 0.5128-0.09059 0.7441-0.1985zm37.6 52.52c-0.7922-2.875-2.527-4.591-5.308-5.25l-0.972-0.2302 0.7358-0.08194c3.272-0.3644 4.921-2.28 5.407-6.28 0.06646-0.5468 0.1339-1.007 0.1498-1.023 0.01585-0.01588 0.2093 0.5736 0.4298 1.31 0.7356 2.457 1.202 3.452 1.976 4.221 0.6338 0.6291 1.521 1.013 3.528 1.527l1.753 0.4489-0.6307 0.1289c-2.253 0.4606-3.609 0.952-4.658 1.688-1.243 0.873-1.804 1.848-2.055 3.576l-0.1201 0.8259zm-10.79-43.11c-0.6073-2.576-2.335-4.435-4.832-5.2-0.3963-0.1213-0.8339-0.2206-0.9723-0.2206-0.1384 0-0.2517-0.0473-0.2517-0.1051 0-0.05782 0.158-0.1051 0.3511-0.1051 0.5729 0 1.929-0.3908 2.603-0.7502 0.7831-0.4174 1.657-1.347 2.084-2.217 0.4038-0.8231 0.8062-2.392 0.9056-3.531 0.04166-0.4771 0.09003-0.8531 0.1076-0.8355 0.01758 0.01756 0.2505 0.7406 0.5176 1.607 1.212 3.929 1.947 4.651 5.64 5.54 0.7469 0.1799 1.321 0.3586 1.276 0.3973-0.04522 0.03865-0.4844 0.1537-0.9758 0.2556-3.735 0.7749-5.653 2.257-6.008 4.643-0.2107 1.417-0.2289 1.438-0.4449 0.5216zm-51.03-18.35c-0.4774-1.678-0.892-2.576-1.587-3.439-0.915-1.136-2.117-1.856-3.826-2.29-0.5305-0.135-0.8324-0.2491-0.671-0.2537 0.6257-0.01769 1.945-0.3554 2.597-0.6649 1.826-0.8666 2.998-2.988 3.221-5.831 0.0693-0.8821 0.1733-1.027 0.3054-0.426 0.3087 1.405 1.34 4.013 1.872 4.736 0.5931 0.8049 1.864 1.401 4.204 1.972 0.6902 0.1685 1.273 0.3243 1.295 0.3461 0.02175 0.0218-0.3754 0.1207-0.8828 0.2198-1.323 0.2586-3.019 0.8447-3.826 1.323-0.8367 0.4956-1.721 1.431-2.046 2.164-0.2412 0.5444-0.4416 1.436-0.4936 2.197l-0.02876 0.4205z" fill="#606060" stroke-width=".1051"/>
</svg>
